<?xml version="1.0" encoding="UTF-8"?>
<svg width="49px" height="81px" viewBox="0 0 49 81" version="1.1" xmlns="http://www.w3.org/2000/svg" xmlns:xlink="http://www.w3.org/1999/xlink">
    <title>Pin</title>
    <g id="Page-1" stroke="none" stroke-width="1" fill="none" fill-rule="evenodd">
        <g id="Pin">
            <ellipse id="Path-for-shadow" fill-opacity="0.402179851" fill="#000000" cx="24.5" cy="77.5" rx="12.5" ry="3.5"></ellipse>
            <path d="M24.4998485,0 C38.0308863,0 49,11.0304492 49,24.6373359 C49,37.0167891 39.4600858,60.4696523 24.5,78 C9.53991417,60.4695 0,37.0167891 0,24.6373359 C0,11.0304492 10.9689622,0 24.4998485,0 Z M24.5,13 C18.1595334,13 13.0007768,18.1595073 13,24.4987569 C13.0007768,30.8404927 18.1595334,36 24.5,36 C30.8404666,36 35.9995339,30.8406481 36,24.5012431 C35.9992232,18.1595073 30.8404666,13 24.5,13 Z" id="Path-body-2" fill="#D93333" fill-rule="nonzero"></path>
            <path d="M11.3141032,19.1813716 C13.7221569,9.41848474 21.6640667,2.45790374 31,0.793344091 C29.0033125,0.275978899 26.9089868,0 24.7496199,0 C11.0808732,0 0,11.0338223 0,24.64487 C0,35.8783236 7.93104402,56.22731 20.6856944,73 C11.6481853,53.2083051 8.5326366,30.4585613 11.3141032,19.1813716 Z" id="Path" fill="#000000" fill-rule="nonzero" opacity="0.100000001"></path>
        </g>
    </g>
</svg>